<?xml version="1.0" encoding="UTF-8" standalone="no"?>
<!-- Created with Inkscape (http://www.inkscape.org/) -->

<svg
   xmlns:osb="http://www.openswatchbook.org/uri/2009/osb"
   xmlns:dc="http://purl.org/dc/elements/1.1/"
   xmlns:cc="http://creativecommons.org/ns#"
   xmlns:rdf="http://www.w3.org/1999/02/22-rdf-syntax-ns#"
   xmlns:svg="http://www.w3.org/2000/svg"
   xmlns="http://www.w3.org/2000/svg"
   xmlns:xlink="http://www.w3.org/1999/xlink"
   xmlns:sodipodi="http://sodipodi.sourceforge.net/DTD/sodipodi-0.dtd"
   xmlns:inkscape="http://www.inkscape.org/namespaces/inkscape"
   width="800"
   height="800"
   viewBox="0 0 799.99999 799.99999"
   id="svg2"
   version="1.1"
   inkscape:version="0.91 r13725"
   sodipodi:docname="1.svg">
  <defs
     id="defs4">
    <linearGradient
       id="linearGradient4252"
       osb:paint="solid">
      <stop
         style="stop-color:#000000;stop-opacity:1;"
         offset="0"
         id="stop4254" />
    </linearGradient>
    <linearGradient
       id="linearGradient4246"
       osb:paint="solid">
      <stop
         style="stop-color:#000000;stop-opacity:1;"
         offset="0"
         id="stop4248" />
    </linearGradient>
    <linearGradient
       id="linearGradient4240"
       osb:paint="solid">
      <stop
         style="stop-color:#000000;stop-opacity:1;"
         offset="0"
         id="stop4242" />
    </linearGradient>
    <linearGradient
       id="linearGradient4234"
       osb:paint="solid">
      <stop
         style="stop-color:#000000;stop-opacity:1;"
         offset="0"
         id="stop4236" />
    </linearGradient>
    <linearGradient
       inkscape:collect="always"
       xlink:href="#linearGradient4252"
       id="linearGradient4256"
       x1="2.0202942"
       y1="651.33179"
       x2="800.0408"
       y2="651.33179"
       gradientUnits="userSpaceOnUse"
       gradientTransform="matrix(0.9260501,0,0,0.9260501,28.676489,47.145637)" />
  </defs>
  <sodipodi:namedview
     id="base"
     pagecolor="#ffffff"
     bordercolor="#666666"
     borderopacity="1.0"
     inkscape:pageopacity="0.0"
     inkscape:pageshadow="2"
     inkscape:zoom="0.5"
     inkscape:cx="563.34866"
     inkscape:cy="360.83337"
     inkscape:document-units="px"
     inkscape:current-layer="layer2"
     showgrid="false"
     inkscape:window-width="1920"
     inkscape:window-height="992"
     inkscape:window-x="0"
     inkscape:window-y="31"
     inkscape:window-maximized="1"
     units="px"
     showguides="true"
     inkscape:guide-bbox="true">
    <sodipodi:guide
       position="842.46721,800.04081"
       orientation="0,1"
       id="guide4224" />
    <sodipodi:guide
       position="971.76674,0"
       orientation="0,1"
       id="guide4226" />
    <sodipodi:guide
       position="800.04081,-131.31983"
       orientation="1,0"
       id="guide4228" />
    <sodipodi:guide
       position="2.0203051,-149.50257"
       orientation="1,0"
       id="guide4230" />
    <sodipodi:guide
       position="-433.99999,210"
       orientation="1,0"
       id="guide4266" />
    <sodipodi:guide
       position="483.99999,401.99999"
       orientation="0,1"
       id="guide4268" />
  </sodipodi:namedview>
  <metadata
     id="metadata7">
    <rdf:RDF>
      <cc:Work
         rdf:about="">
        <dc:format>image/svg+xml</dc:format>
        <dc:type
           rdf:resource="http://purl.org/dc/dcmitype/StillImage" />
        <dc:title></dc:title>
      </cc:Work>
    </rdf:RDF>
  </metadata>
  <g
     inkscape:label="Layer 1"
     inkscape:groupmode="layer"
     id="layer1"
     transform="translate(0,-252.36235)"
     style="display:inline">
    <circle
       style="fill:none;fill-opacity:1;stroke:url(#linearGradient4256);stroke-width:55;stroke-miterlimit:4;stroke-dasharray:none;stroke-opacity:1"
       id="path4232"
       cx="400.05087"
       cy="650.31146"
       r="369.50345" />
  </g>
  <g
     inkscape:groupmode="layer"
     id="layer2"
     inkscape:label="Layer 2"
     style="display:inline">
    <text
       xml:space="preserve"
       style="font-style:normal;font-variant:normal;font-weight:normal;font-stretch:normal;font-size:828.93408203px;line-height:125%;font-family:Nunito;-inkscape-font-specification:Nunito;letter-spacing:0px;word-spacing:0px;display:inline;fill:#e44f3d;fill-opacity:0.81568629;stroke:none;stroke-width:1px;stroke-linecap:butt;stroke-linejoin:miter;stroke-opacity:1;"
       x="185.1972"
       y="644.79456"
       id="text4333"
       sodipodi:linespacing="125%"><tspan
         sodipodi:role="line"
         x="185.1972"
         y="644.79456"
         id="tspan4335"
         style="font-size:725px;fill:#e44f3d;fill-opacity:0.81568629;">1</tspan></text>
    <path
       style="fill:#e44f3d;fill-opacity:0.81568627;fill-rule:nonzero;stroke:none;stroke-width:55;stroke-miterlimit:4;stroke-dasharray:none;stroke-opacity:1"
       d="M 371.94866,792.81155 C 185.47144,778.85587 33.760689,637.20261 8.077641,453.06293 4.1265818,424.73503 4.0612802,370.52465 7.9453026,343.20149 26.467085,212.90517 108.71256,99.545628 225.94866,42.725864 283.70254,14.734817 336.08602,2.7336423 400.20534,2.8032662 468.40278,2.8773182 526.13722,16.982547 584.4654,47.820256 c 38.6628,20.440762 67.87928,42.520052 99.54324,75.226164 38.88494,40.16475 66.47648,83.04657 86.05682,133.74655 28.21744,73.06426 33.22236,161.007 13.60024,238.97366 -13.27156,52.73332 -41.69112,109.23046 -76.283,151.648 -81.30686,99.70084 -208.6232,154.88726 -335.43404,145.39692 z m 71.27272,-54.95498 c 97.06224,-12.92164 179.40826,-62.33106 236.80788,-142.08994 15.51826,-21.56322 36.50716,-62.9131 45.00892,-88.67136 26.4749,-80.21252 22.92418,-168.24448 -9.85256,-244.27078 C 668.19888,153.83778 568.68102,77.17012 449.94866,58.48835 c -20.44204,-3.216424 -79.48172,-3.27224 -99,-0.0936 C 240.25776,76.421286 150.7481,139.17758 97.962127,235.76663 47.529463,328.04953 43.976997,444.66907 88.652845,541.36975 151.2548,676.87143 296.54224,757.38355 443.22138,737.85657 Z"
       id="path4775"
       inkscape:connector-curvature="0" />
    <path
       style="fill:#e44f3d;fill-opacity:0.81568627;fill-rule:nonzero;stroke:none;stroke-width:55;stroke-miterlimit:4;stroke-dasharray:none;stroke-opacity:1"
       d="m 408.82624,642.11273 c -11.72579,-3.25974 -20.40851,-9.5085 -26.23658,-18.88188 l -4.641,-7.46422 -0.5388,-193.65374 c -0.29635,-106.50955 -1.26026,-193.35955 -2.14204,-193 -0.88177,0.35956 -18.23148,11.18887 -38.55491,24.06513 -42.07374,26.65657 -47.49579,28.51804 -61.75602,21.20183 -16.87681,-8.65865 -23.11416,-31.01065 -12.63047,-45.26221 2.19013,-2.97727 35.09015,-24.13412 74.16482,-47.6928 76.67531,-46.22866 80.73339,-47.94942 100.5684,-42.64451 11.16996,2.98743 24.82208,16.59653 27.82088,27.73322 1.44838,5.37889 1.95338,77.89069 1.59406,228.89126 l -0.52592,221.01822 -6.0183,8.5625 c -10.5769,15.04826 -32.34252,22.34286 -51.10412,17.1272 z"
       id="path4777"
       inkscape:connector-curvature="0" />
    <path
       style="fill:#e44f3d;fill-opacity:0.81568627;fill-rule:nonzero;stroke:none;stroke-width:55;stroke-miterlimit:4;stroke-dasharray:none;stroke-opacity:1"
       d="m 399.56125,637.69731 c -6.54079,-3.2594 -12.21496,-8.07932 -15.89268,-13.5 l -5.71991,-8.43068 -0.51086,-191 c -0.28097,-105.05 -0.92697,-192.12304 -1.43555,-193.49564 -0.6001,-1.61959 -11.65361,4.29092 -31.48914,16.83783 -16.81045,10.63341 -36.17061,21.95746 -43.02258,25.16456 -11.34933,5.31211 -13.12938,5.61693 -20,3.42493 -20.05109,-6.39711 -30.96582,-31.7003 -19.92837,-46.19915 3.2345,-4.24885 34.86777,-24.73503 82.3865,-53.35474 69.62005,-41.93094 79.24997,-45.33333 98.96912,-34.96723 8.03874,4.22586 12.58026,8.37186 17,15.51947 l 6.03088,9.75316 0.6477,213.15841 c 0.35624,117.23712 0.0504,218.87042 -0.67988,225.85176 -1.13524,10.85418 -2.38824,13.86978 -8.64772,20.8126 -14.55408,16.14296 -37.80409,20.34302 -57.70751,10.42472 z"
       id="path4779"
       inkscape:connector-curvature="0" />
    <path
       style="fill:#e44f3d;fill-opacity:0.81568627;fill-rule:nonzero;stroke:none;stroke-width:55;stroke-miterlimit:4;stroke-dasharray:none;stroke-opacity:1"
       d="m 399.56746,637.70041 c -6.3518,-3.16524 -12.31517,-8.16634 -15.89269,-13.3282 l -5.72611,-8.262 -0.5389,-192.67178 c -0.3582,-128.06662 -1.21642,-192.6718 -2.55947,-192.6718 -1.11132,0 -15.26881,8.2401 -31.4611,18.31134 -16.19229,10.07124 -35.04669,20.94725 -41.89866,24.16892 -11.19175,5.26215 -13.17911,5.61963 -19.55081,3.51678 -14.00397,-4.62172 -24.99106,-18.4436 -24.99106,-31.43903 0,-14.54699 6.98173,-20.03444 86,-67.59374 70.76911,-42.59432 80.19739,-45.94746 99.96912,-35.55371 8.03926,4.22613 12.57998,8.37158 17,15.52012 l 6.03088,9.7538 0.60548,215.15776 c 0.333,118.33676 0.0332,219.96294 -0.66618,225.83594 -3.30228,27.72962 -38.3541,43.19184 -66.3205,29.2556 z"
       id="path4781"
       inkscape:connector-curvature="0" />
    <path
       style="fill:#e44f3d;fill-opacity:0.81568627;fill-rule:nonzero;stroke:none;stroke-width:55;stroke-miterlimit:4;stroke-dasharray:none;stroke-opacity:1"
       d="m 399.56746,637.70041 c -6.35121,-3.16494 -12.3155,-8.16662 -15.89269,-13.32766 l -5.72611,-8.26146 -1,-191.5065 c -0.55,-105.32859 -1.59271,-192.09885 -2.31713,-192.82281 -0.72443,-0.72396 -14.67443,6.99152 -31,17.14552 -16.32558,10.154 -35.35192,21.12715 -42.28077,24.3848 -12.53989,5.8957 -12.63847,5.90749 -21.4068,2.55883 -21.72663,-8.29748 -30.04143,-33.9748 -15.39812,-47.5517 7.72748,-7.16473 29.59719,-21.37615 75.40282,-48.99844 58.13019,-35.05439 71.45051,-41.55436 85.15684,-41.55436 15.68427,0 28.60118,8.10872 36.25472,22.75926 l 5.58844,10.6975 -0.012,218.27162 c -0.006,136.6869 -0.74528,220.9142 -1.97526,225.34158 -2.36672,8.51918 -14.24136,20.57986 -24.44934,24.83238 -11.63073,4.84524 -28.94213,4.01294 -40.94544,-1.96856 l 8.4e-4,0 z"
       id="path4783"
       inkscape:connector-curvature="0" />
    <path
       style="fill:#e44f3d;fill-opacity:0.81568627;fill-rule:nonzero;stroke:none;stroke-width:55;stroke-miterlimit:4;stroke-dasharray:none;stroke-opacity:1"
       d="M 350.4406,789.69517 C 297.84294,782.52519 245.39518,764.73435 201.86244,739.29583 104.6047,682.46289 34.210347,584.21893 12.958491,475.65717 4.3161568,431.50917 4.222322,361.59757 12.750599,320.76663 32.650501,225.49159 85.743383,140.61278 160.8104,84.065584 239.91338,24.47814 331.60208,-2.3732978 430.94866,4.9543992 c 80.03344,5.9031798 156.23396,36.0531908 217,85.8596688 17.16264,14.067252 52.88814,50.701622 65.2915,66.952562 40.54296,53.11958 66.49214,113.4894 76.52992,178.04404 16.5712,106.57218 -9.8209,212.78048 -74.4141,299.46068 -53.50476,71.80018 -133.1014,124.13146 -222.423,146.23328 -43.91242,10.86574 -99.4495,14.05804 -142.49238,8.19054 z m 115.44718,-54.81552 c 64.70888,-13.05688 123.21916,-43.21822 168.62562,-86.92448 36.45722,-35.09212 52.38526,-56.93546 74.51522,-102.18854 24.63466,-50.37484 32.92004,-87.6238 32.92004,-148 0,-43.85268 -2.6106,-63.46252 -13.22686,-99.35546 C 697.89204,194.17769 613.65982,107.61464 509.01836,72.628188 466.77164,58.50317 451.88996,56.228234 400.94866,56.107772 350.5668,55.988632 335.00466,58.271902 293.4737,71.876434 205.7856,100.60093 132.26351,164.56738 91.125179,247.92581 55.539029,320.03387 47.375629,408.73661 68.980357,488.54929 104.0343,618.04639 213.4346,715.44367 348.94866,737.80045 c 26.19528,4.32164 88.79502,2.75808 116.93912,-2.9208 z"
       id="path4785"
       inkscape:connector-curvature="0" />
    <path
       style="fill:#e44f3d;fill-opacity:0.81568627;fill-rule:nonzero;stroke:none;stroke-width:55;stroke-miterlimit:4;stroke-dasharray:none;stroke-opacity:1"
       d="M 358.94072,790.63875 C 300.2137,784.39419 233.04334,760.21201 184.02767,727.66781 100.54654,672.24013 41.340915,589.09569 17.308769,493.53889 8.772884,459.59843 6.1839078,429.67465 7.557388,380.83095 8.8622138,334.42873 11.897033,316.28821 25.079855,276.09109 53.456043,189.56628 110.21459,115.98922 186.94866,66.25785 220.23926,44.682206 262.7935,25.990388 301.54422,15.922102 359.8722,0.76721567 439.80584,0.69326366 497.62458,15.740694 c 74.94886,19.50557 135.33812,55.336838 188.5083,111.849206 36.55382,38.85155 59.71378,74.29769 78.8612,120.69651 60.16206,145.7872 26.15834,315.5305 -85.77168,428.164 -82.30056,82.8178 -204.74782,126.47326 -320.28168,114.18834 z m 106.94706,-55.79362 c 46.09808,-9.2291 94.39196,-29.7003 131.06088,-55.55518 26.29756,-18.54212 69.7055,-62.29408 85.84298,-86.52332 C 706.681,556.89855 728.37814,506.78157 735.821,470.27721 755.48378,373.83865 735.47658,277.50371 679.2278,197.78028 663.75236,175.84636 622.02494,134.5233 598.94866,118.27906 560.88858,91.487188 510.91258,69.767394 466.17362,60.574452 c -17.0045,-3.49408 -27.54964,-4.160352 -66.22496,-4.184286 -42.74778,-0.02645 -47.6857,0.35188 -69.84274,5.351216 C 267.9735,75.760432 213.10948,104.00078 168.20275,145.07834 68.661643,236.13165 31.926453,376.84161 74.026237,505.81077 113.34905,626.27293 220.6208,717.01623 348.20388,737.74311 c 26.81784,4.35676 89.10924,2.82284 117.6839,-2.89798 z"
       id="path4787"
       inkscape:connector-curvature="0" />
    <path
       style="fill:#e44f3d;fill-opacity:1;fill-rule:nonzero;stroke:none;stroke-width:55;stroke-miterlimit:4;stroke-dasharray:none;stroke-opacity:1"
       d="M 355.94866,790.43573 C 332.55378,787.79255 297.83918,779.60691 271.2521,770.46445 146.92227,727.71133 50.491993,623.14017 17.939554,495.76663 c -9.1800228,-35.92026 -11.8121488,-65.13426 -10.3612842,-115 1.354417,-46.55088 4.5976032,-65.95194 17.5523592,-105 C 53.521817,190.19029 109.0541,117.61875 183.94866,68.217628 231.1928,37.05497 287.83766,15.540936 342.8415,7.869225 371.33788,3.8946665 429.02118,3.8552773 456.71474,7.791467 c 104.55518,14.860809 196.16778,69.987117 261.2766,157.218703 115.0673,154.16504 98.4518,373.35708 -38.76894,511.44024 -62.97926,63.37508 -149.0651,104.21956 -240.69492,114.2007 -22.61182,2.46308 -59.72872,2.36628 -82.57882,-0.21538 z m 105,-54.80254 c 40.74246,-7.02444 93.17364,-28.10996 129.09888,-51.9179 29.11468,-19.29452 64.80334,-53.34018 86.95168,-82.94866 28.77098,-38.46182 53.9946,-98.926 62.15778,-149 3.38302,-20.7519 3.49494,-87.38278 0.1798,-107 C 725.53808,263.11549 686.57892,192.94133 625.54826,139.80808 580.40042,100.50241 521.9235,71.715686 464.68804,60.620598 435.75708,55.012332 362.91798,55.06684 335.1897,60.717506 186.54404,91.009562 76.130269,210.60917 59.034195,359.84767 c -10.422526,90.9824 17.1805,183.998 75.945735,255.91896 53.00735,64.87408 135.68771,111.06376 220.13727,122.9805 18.71214,2.64048 83.51442,0.73378 105.83146,-3.11394 z"
       id="path4789"
       inkscape:connector-curvature="0" />
    <path
       style="fill:#e44f3d;fill-opacity:1;fill-rule:nonzero;stroke:none;stroke-width:55;stroke-miterlimit:4;stroke-dasharray:none;stroke-opacity:1"
       d="M 355.41388,790.55749 C 289.96844,782.94707 219.46216,754.83069 164.94866,714.60405 142.68486,698.17513 99.128727,654.47569 82.382899,631.76663 42.751161,578.02193 15.280617,508.92839 8.7512426,446.56927 5.25211,413.15063 7.5033672,345.37749 12.963316,319.76663 29.597331,241.74181 68.590061,170.82195 125.23738,115.56293 179.06995,63.049664 246.22744,27.235258 320.83194,11.254341 c 23.55962,-5.0466748 28.34042,-5.383549 77.11672,-5.433966 55.88048,-0.05776 65.76778,0.9955262 104.5821,11.141049 69.38244,18.135604 130.03588,54.330934 181.67204,108.413966 24.55236,25.71582 38.97998,44.39965 55.41074,71.7571 24.29356,40.44916 40.9431,85.72998 49.50434,134.63414 6.00282,34.28982 6.51124,92.88404 1.09118,125.75526 -27.06896,164.1658 -146.05972,290.17816 -307.89496,326.06374 -39.65394,8.79292 -88.2709,11.46392 -126.90022,6.97186 z m 70.53478,-51.81226 c 33.62108,-2.38504 53.02928,-6.0708 81,-15.38246 60.04502,-19.98944 111.97728,-54.85454 153.74792,-103.21974 20.49748,-23.73354 28.3997,-35.93934 45.10164,-69.66414 23.65214,-47.75874 32.25964,-78.70784 35.07908,-126.13022 4.18112,-70.32548 -5.4029,-120.6026 -34.042,-178.58204 C 689.63412,210.94307 672.03072,186.2367 644.94866,158.90877 600.98512,114.54609 548.19832,83.214322 489.78896,66.81327 460.4665,58.579668 444.11072,56.766626 399.15638,56.766626 c -47.0339,0 -66.0484,2.751074 -103.20772,14.93239 C 164.70691,114.72181 74.681843,224.94695 59.039401,361.76663 c -10.547872,92.25902 19.872016,189.0708 81.877499,260.57646 60.41904,69.67614 157.19704,116.53064 244.03176,118.14652 7.15,0.133 25.6,-0.65192 41,-1.74438 z"
       id="path4791"
       inkscape:connector-curvature="0" />
    <path
       style="fill:#e44f3d;fill-opacity:1;fill-rule:nonzero;stroke:none;stroke-width:55;stroke-miterlimit:4;stroke-dasharray:none;stroke-opacity:1"
       d="m 399.11108,637.47299 c -7.56787,-3.77124 -12.2823,-7.91014 -16.39269,-14.39156 l -5.76973,-9.09792 -0.22386,-173.10844 c -0.12312,-95.20964 -0.79812,-181.43298 -1.5,-191.60742 l -1.27614,-18.49898 -34.39635,20.79398 c -18.91799,11.43669 -38.5103,22.36511 -43.53846,24.28538 -8.70905,3.32602 -9.51232,3.32447 -16.95721,-0.0327 -19.30016,-8.70316 -28.26145,-30.68639 -17.88598,-43.87666 5.61031,-7.13235 30.09823,-23.42704 82.75673,-55.06777 69.58168,-41.80931 78.1805,-44.89905 97.9868,-35.20874 7.75686,3.79508 12.98473,8.19243 17.54219,14.75535 l 6.49228,9.34913 0.58854,218 c 0.3237,119.9 0.033,221.89508 -0.6459,226.65574 -1.49998,10.51762 -12.14606,23.24036 -23.94264,28.61294 -12.24469,5.57666 -29.79606,4.93654 -42.83758,-1.56232 z"
       id="path4793"
       inkscape:connector-curvature="0" />
  </g>
</svg>
